<svg width="429" height="80" viewBox="0 0 429 80" fill="none" xmlns="http://www.w3.org/2000/svg">
<path d="M9.12 51.84H27.92V59.2H2.38419e-07V3.59999H9.12V51.84ZM32.5069 36.96C32.5069 32.5333 33.4135 28.6133 35.2269 25.2C37.0935 21.7867 39.6002 19.1467 42.7469 17.28C45.9469 15.36 49.4669 14.4 53.3069 14.4C56.7735 14.4 59.7869 15.0933 62.3469 16.48C64.9602 17.8133 67.0402 19.4933 68.5869 21.52V15.12H77.7869V59.2H68.5869V52.64C67.0402 54.72 64.9335 56.4533 62.2669 57.84C59.6002 59.2267 56.5602 59.92 53.1469 59.92C49.3602 59.92 45.8935 58.96 42.7469 57.04C39.6002 55.0667 37.0935 52.3467 35.2269 48.88C33.4135 45.36 32.5069 41.3867 32.5069 36.96ZM68.5869 37.12C68.5869 34.08 67.9469 31.44 66.6669 29.2C65.4402 26.96 63.8135 25.2533 61.7869 24.08C59.7602 22.9067 57.5735 22.32 55.2269 22.32C52.8802 22.32 50.6935 22.9067 48.6669 24.08C46.6402 25.2 44.9869 26.88 43.7069 29.12C42.4802 31.3067 41.8669 33.92 41.8669 36.96C41.8669 40 42.4802 42.6667 43.7069 44.96C44.9869 47.2533 46.6402 49.0133 48.6669 50.24C50.7469 51.4133 52.9335 52 55.2269 52C57.5735 52 59.7602 51.4133 61.7869 50.24C63.8135 49.0667 65.4402 47.36 66.6669 45.12C67.9469 42.8267 68.5869 40.16 68.5869 37.12ZM112.006 14.4C115.472 14.4 118.566 15.12 121.286 16.56C124.059 18 126.219 20.1333 127.766 22.96C129.312 25.7867 130.086 29.2 130.086 33.2V59.2H121.046V34.56C121.046 30.6133 120.059 27.6 118.086 25.52C116.112 23.3867 113.419 22.32 110.006 22.32C106.592 22.32 103.872 23.3867 101.846 25.52C99.8723 27.6 98.8856 30.6133 98.8856 34.56V59.2H89.7656V15.12H98.8856V20.16C100.379 18.3467 102.272 16.9333 104.566 15.92C106.912 14.9067 109.392 14.4 112.006 14.4ZM159.159 37.2L179.479 59.2H167.159L150.839 40.24V59.2H141.719V-3.8147e-06H150.839V34.4L166.839 15.12H179.479L159.159 37.2ZM182.976 36.96C182.976 32.5333 183.882 28.6133 185.696 25.2C187.562 21.7867 190.069 19.1467 193.216 17.28C196.416 15.36 199.936 14.4 203.776 14.4C207.242 14.4 210.256 15.0933 212.816 16.48C215.429 17.8133 217.509 19.4933 219.056 21.52V15.12H228.256V59.2H219.056V52.64C217.509 54.72 215.402 56.4533 212.736 57.84C210.069 59.2267 207.029 59.92 203.616 59.92C199.829 59.92 196.362 58.96 193.216 57.04C190.069 55.0667 187.562 52.3467 185.696 48.88C183.882 45.36 182.976 41.3867 182.976 36.96ZM219.056 37.12C219.056 34.08 218.416 31.44 217.136 29.2C215.909 26.96 214.282 25.2533 212.256 24.08C210.229 22.9067 208.042 22.32 205.696 22.32C203.349 22.32 201.162 22.9067 199.136 24.08C197.109 25.2 195.456 26.88 194.176 29.12C192.949 31.3067 192.336 33.92 192.336 36.96C192.336 40 192.949 42.6667 194.176 44.96C195.456 47.2533 197.109 49.0133 199.136 50.24C201.216 51.4133 203.402 52 205.696 52C208.042 52 210.229 51.4133 212.256 50.24C214.282 49.0667 215.909 47.36 217.136 45.12C218.416 42.8267 219.056 40.16 219.056 37.12Z" fill="#3252DF"/>
<path d="M258.554 59.76C254.821 59.76 251.461 59.12 248.474 57.84C245.488 56.5067 243.141 54.64 241.434 52.24C239.728 49.84 238.874 47.04 238.874 43.84H248.634C248.848 46.24 249.781 48.2133 251.434 49.76C253.141 51.3067 255.514 52.08 258.554 52.08C261.701 52.08 264.154 51.3333 265.914 49.84C267.674 48.2933 268.554 46.32 268.554 43.92C268.554 42.0533 267.994 40.5333 266.874 39.36C265.808 38.1867 264.448 37.28 262.794 36.64C261.194 36 258.954 35.3067 256.074 34.56C252.448 33.6 249.488 32.64 247.194 31.68C244.954 30.6667 243.034 29.12 241.434 27.04C239.834 24.96 239.034 22.1867 239.034 18.72C239.034 15.52 239.834 12.72 241.434 10.32C243.034 7.92 245.274 6.08 248.154 4.8C251.034 3.51999 254.368 2.87999 258.154 2.87999C263.541 2.87999 267.941 4.23999 271.354 6.95999C274.821 9.62666 276.741 13.3067 277.114 18H267.034C266.874 15.9733 265.914 14.24 264.154 12.8C262.394 11.36 260.074 10.64 257.194 10.64C254.581 10.64 252.448 11.3067 250.794 12.64C249.141 13.9733 248.314 15.8933 248.314 18.4C248.314 20.1067 248.821 21.52 249.834 22.64C250.901 23.7067 252.234 24.56 253.834 25.2C255.434 25.84 257.621 26.5333 260.394 27.28C264.074 28.2933 267.061 29.3067 269.354 30.32C271.701 31.3333 273.674 32.9067 275.274 35.04C276.928 37.12 277.754 39.92 277.754 43.44C277.754 46.2667 276.981 48.9333 275.434 51.44C273.941 53.9467 271.728 55.9733 268.794 57.52C265.914 59.0133 262.501 59.76 258.554 59.76ZM299.156 22.56V46.96C299.156 48.6133 299.529 49.8133 300.276 50.56C301.076 51.2533 302.409 51.6 304.276 51.6H309.876V59.2H302.676C298.569 59.2 295.422 58.24 293.236 56.32C291.049 54.4 289.956 51.28 289.956 46.96V22.56H284.756V15.12H289.956V4.16H299.156V15.12H309.876V22.56H299.156ZM315.241 36.96C315.241 32.5333 316.148 28.6133 317.961 25.2C319.828 21.7867 322.335 19.1467 325.481 17.28C328.681 15.36 332.201 14.4 336.041 14.4C339.508 14.4 342.521 15.0933 345.081 16.48C347.695 17.8133 349.775 19.4933 351.321 21.52V15.12H360.521V59.2H351.321V52.64C349.775 54.72 347.668 56.4533 345.001 57.84C342.335 59.2267 339.295 59.92 335.881 59.92C332.095 59.92 328.628 58.96 325.481 57.04C322.335 55.0667 319.828 52.3467 317.961 48.88C316.148 45.36 315.241 41.3867 315.241 36.96ZM351.321 37.12C351.321 34.08 350.681 31.44 349.401 29.2C348.175 26.96 346.548 25.2533 344.521 24.08C342.495 22.9067 340.308 22.32 337.961 22.32C335.615 22.32 333.428 22.9067 331.401 24.08C329.375 25.2 327.721 26.88 326.441 29.12C325.215 31.3067 324.601 33.92 324.601 36.96C324.601 40 325.215 42.6667 326.441 44.96C327.721 47.2533 329.375 49.0133 331.401 50.24C333.481 51.4133 335.668 52 337.961 52C340.308 52 342.495 51.4133 344.521 50.24C346.548 49.0667 348.175 47.36 349.401 45.12C350.681 42.8267 351.321 40.16 351.321 37.12ZM412.18 15.12L385.14 79.92H375.7L384.66 58.48L367.3 15.12H377.46L389.86 48.72L402.74 15.12H412.18ZM422.743 59.76C421.089 59.76 419.703 59.2 418.583 58.08C417.463 56.96 416.903 55.5733 416.903 53.92C416.903 52.2667 417.463 50.88 418.583 49.76C419.703 48.64 421.089 48.08 422.743 48.08C424.343 48.08 425.703 48.64 426.823 49.76C427.943 50.88 428.503 52.2667 428.503 53.92C428.503 55.5733 427.943 56.96 426.823 58.08C425.703 59.2 424.343 59.76 422.743 59.76Z" fill="#152C5B"/>
</svg>
