<svg width="133" height="56" viewBox="0 0 133 56" fill="none" xmlns="http://www.w3.org/2000/svg">
<path fill-rule="evenodd" clip-rule="evenodd" d="M61.472 43.3864V27.4005H69.7226C73.1035 27.4005 75.9571 26.2676 78.2835 24.0334L78.8418 23.467C83.0912 18.8411 82.812 11.6349 78.2835 7.3552C76.0192 5.08948 72.9174 3.86222 69.7226 3.92516H56.4782V43.3864H61.472ZM61.4726 22.5544V8.77133H69.8486C71.6479 8.77133 73.3542 9.46363 74.6261 10.7224C77.325 13.3657 77.3871 17.7713 74.7812 20.509C73.5093 21.8621 71.71 22.6174 69.8486 22.5544H61.4726ZM102.136 18.4949C99.9957 16.5124 97.0801 15.5054 93.389 15.5054C88.6433 15.5054 85.0763 17.2676 82.719 20.7606L87.1235 23.5613C88.7364 21.1697 90.9386 19.9739 93.7302 19.9739C95.4982 19.9739 97.2041 20.6347 98.5379 21.8305C99.8406 22.9634 100.585 24.5997 100.585 26.3305V27.4948C98.6619 26.4249 96.2426 25.8585 93.2649 25.8585C89.791 25.8585 86.9994 26.6766 84.9212 28.3445C82.8431 30.0123 81.7885 32.2151 81.7885 35.0157C81.7264 37.5647 82.812 39.9877 84.7351 41.6241C86.6892 43.3863 89.1706 44.2674 92.0863 44.2674C95.5292 44.2674 98.2587 42.7255 100.337 39.6416H100.554V43.3863H105.331V26.7396C105.331 23.2466 104.276 20.4774 102.136 18.4949ZM88.5821 38.4145C87.5584 37.6592 86.9379 36.432 86.9379 35.1103C86.9379 33.6313 87.6204 32.404 88.9544 31.4285C90.3194 30.453 92.0256 29.9495 94.0421 29.9495C96.8341 29.918 99.0056 30.5474 100.557 31.8061C100.557 33.946 99.7191 35.8026 98.075 37.376C96.5859 38.8865 94.5694 39.7361 92.4599 39.7361C91.0639 39.7676 89.6989 39.2956 88.5821 38.4145ZM116.063 55.2498L132.75 16.3865H127.322L119.599 35.7709H119.506L111.596 16.3865H106.168L117.117 41.6555L110.914 55.2498H116.063Z" fill="#3C4043"/>
<path d="M44.2316 23.9389C44.2316 22.3969 44.1075 20.855 43.8594 19.3445H22.7986V28.0612H34.8644C34.3681 30.8619 32.7552 33.3793 30.3978 34.9527V40.617H37.5939C41.8123 36.6835 44.2316 30.8619 44.2316 23.9389Z" fill="#4285F4"/>
<path d="M22.7995 46.0926C28.8169 46.0926 33.9038 44.0786 37.5948 40.6171L30.3988 34.9528C28.3827 36.3374 25.8082 37.1242 22.7995 37.1242C16.9683 37.1242 12.0365 33.1277 10.2685 27.7781H2.85535V33.6312C6.63947 41.278 14.3628 46.0926 22.7995 46.0926Z" fill="#34A853"/>
<path d="M10.2692 27.7781C9.33852 24.9774 9.33852 21.925 10.2692 19.0929V13.2712H2.85485C-0.340452 19.6593 -0.340452 27.2117 2.85485 33.5997L10.2692 27.7781Z" fill="#FBBC04"/>
<path d="M22.7995 9.74693C25.9943 9.68399 29.0651 10.9113 31.3603 13.1455L37.7499 6.66304C33.6866 2.82391 28.3517 0.715533 22.7995 0.778469C14.3628 0.778469 6.63947 5.62458 2.85535 13.2714L10.2685 19.1245C12.0365 13.7434 16.9683 9.74693 22.7995 9.74693Z" fill="#EA4335"/>
</svg>
