<svg width="120" height="74" viewBox="0 0 120 74" fill="none" xmlns="http://www.w3.org/2000/svg">
<path fill-rule="evenodd" clip-rule="evenodd" d="M59.927 64.7888C53.6216 70.2301 45.4425 73.5148 36.5049 73.5148C16.5624 73.5148 0.395813 57.1606 0.395813 36.9865C0.395813 16.8125 16.5624 0.458252 36.5049 0.458252C45.4425 0.458252 53.6217 3.74307 59.9271 9.18439C66.2325 3.74312 74.4116 0.458333 83.3492 0.458333C103.292 0.458333 119.458 16.8126 119.458 36.9866C119.458 57.1606 103.292 73.5149 83.3492 73.5149C74.4116 73.5149 66.2324 70.2301 59.927 64.7888Z" fill="#ED0006"/>
<path fill-rule="evenodd" clip-rule="evenodd" d="M59.9271 64.7887C67.691 58.0888 72.6141 48.1193 72.6141 36.9865C72.6141 25.8538 67.691 15.8843 59.9271 9.18435C66.2325 3.74305 74.4116 0.458252 83.3492 0.458252C103.292 0.458252 119.458 16.8125 119.458 36.9865C119.458 57.1606 103.292 73.5148 83.3492 73.5148C74.4116 73.5148 66.2325 70.23 59.9271 64.7887Z" fill="#F9A000"/>
<path fill-rule="evenodd" clip-rule="evenodd" d="M59.9272 64.7887C67.6911 58.0887 72.6141 48.1193 72.6141 36.9866C72.6141 25.854 67.6911 15.8845 59.9272 9.18457C52.1634 15.8845 47.2404 25.854 47.2404 36.9866C47.2404 48.1193 52.1634 58.0887 59.9272 64.7887Z" fill="#FF5E00"/>
</svg>
