<svg width="107" height="93" viewBox="0 0 107 93" fill="none" xmlns="http://www.w3.org/2000/svg">
<path fill-rule="evenodd" clip-rule="evenodd" d="M13.3875 64.6499H5.15574C4.59243 64.6499 4.11334 65.0593 4.0255 65.6152L0.696135 86.724C0.629962 87.1407 0.952534 87.5161 1.37503 87.5161H5.30497C5.86828 87.5161 6.34737 87.1067 6.43521 86.5497L7.33318 80.8564C7.4198 80.2988 7.90006 79.8899 8.46221 79.8899H11.0681C16.4907 79.8899 19.62 77.2658 20.4377 72.0661C20.8059 69.7912 20.4533 68.0037 19.3877 66.7515C18.218 65.3774 16.1425 64.6499 13.3875 64.6499ZM14.3372 72.3596C13.8872 75.3135 11.6303 75.3135 9.44802 75.3135H8.20581L9.07727 69.7968C9.12901 69.4637 9.41788 69.218 9.75493 69.218H10.3243C11.8108 69.218 13.2132 69.218 13.9379 70.0652C14.3696 70.571 14.5021 71.3219 14.3372 72.3596ZM37.9944 72.2649H34.0524C33.7165 72.2649 33.4263 72.5106 33.3745 72.8442L33.2001 73.9466L32.9244 73.5472C32.0711 72.3084 30.1683 71.8945 28.2689 71.8945C23.9124 71.8945 20.1921 75.1937 19.4674 79.822C19.0909 82.1303 19.6261 84.3377 20.9357 85.8773C22.1372 87.2927 23.8561 87.8826 25.901 87.8826C29.4107 87.8826 31.3575 85.6256 31.3575 85.6256L31.1815 86.7212C31.1152 87.1401 31.4377 87.5155 31.8577 87.5155H35.4087C35.9735 87.5155 36.4498 87.1061 36.5389 86.5491L38.6695 73.057C38.7369 72.642 38.4155 72.2649 37.9944 72.2649ZM32.4994 79.9373C32.119 82.1893 30.3315 83.7011 28.0522 83.7011C26.9075 83.7011 25.9923 83.334 25.4052 82.6383C24.8226 81.9476 24.6009 80.9639 24.7864 79.8688C25.1417 77.6357 26.9593 76.0749 29.2041 76.0749C30.3231 76.0749 31.2333 76.4464 31.8327 77.1483C32.4331 77.8574 32.6715 78.8466 32.4994 79.9373ZM55.0275 72.2644H58.989C59.5438 72.2644 59.8674 72.8865 59.5522 73.3416L46.377 92.3594C46.1636 92.6674 45.8122 92.8506 45.4367 92.8506H41.4802C40.9232 92.8506 40.5979 92.2234 40.9204 91.7672L45.0229 85.9765L40.6597 73.1717C40.5088 72.7267 40.8374 72.2644 41.3109 72.2644H45.2033C45.7091 72.2644 46.1553 72.5963 46.3012 73.0804L48.6168 80.814L54.0806 72.7662C54.2945 72.4521 54.6498 72.2644 55.0275 72.2644Z" fill="#253B80"/>
<path fill-rule="evenodd" clip-rule="evenodd" d="M97.9772 86.7239L101.356 65.2291C101.407 64.8954 101.696 64.6498 102.032 64.6487H105.836C106.256 64.6487 106.578 65.0252 106.512 65.4419L103.18 86.5496C103.093 87.1066 102.614 87.516 102.05 87.516H98.6534C98.2334 87.516 97.9109 87.1405 97.9772 86.7239ZM72.1042 64.6498H63.8709C63.3089 64.6498 62.8298 65.0592 62.7418 65.6151L59.4125 86.7239C59.3462 87.1405 59.6688 87.516 60.0893 87.516H64.3137C64.7064 87.516 65.0423 87.2297 65.1036 86.8398L66.0483 80.8563C66.1352 80.2987 66.6153 79.8898 67.1774 79.8898H69.782C75.2057 79.8898 78.3345 77.2657 79.1527 72.0659C79.522 69.7911 79.1672 68.0036 78.1022 66.7514C76.933 65.3773 74.8592 64.6498 72.1042 64.6498ZM73.0539 72.3595C72.605 75.3134 70.3479 75.3134 68.1644 75.3134H66.9234L67.7962 69.7967C67.848 69.4636 68.1343 69.2179 68.4724 69.2179H69.0417C70.5273 69.2179 71.931 69.2179 72.6551 70.0651C73.0873 70.5709 73.2188 71.3218 73.0539 72.3595ZM96.7089 72.2648H92.7696C92.4309 72.2648 92.1435 72.5104 92.0928 72.8441L91.9185 73.9464L91.6416 73.5471C90.7883 72.3082 88.8866 71.8944 86.9872 71.8944C82.6308 71.8944 78.9115 75.1936 78.1869 79.8219C77.8114 82.1302 78.3445 84.3376 79.654 85.8772C80.8578 87.2926 82.5745 87.8825 84.6193 87.8825C88.1291 87.8825 90.0753 85.6255 90.0753 85.6255L89.8998 86.7211C89.8336 87.14 90.1561 87.5154 90.5789 87.5154H94.1282C94.6902 87.5154 95.1692 87.106 95.2573 86.549L97.389 73.0569C97.4541 72.6419 97.1316 72.2648 96.7089 72.2648ZM91.2144 79.9372C90.8362 82.1892 89.0465 83.701 86.7666 83.701C85.6242 83.701 84.7073 83.3339 84.1197 82.6382C83.537 81.9475 83.3181 80.9638 83.5014 79.8687C83.8584 77.6356 85.6737 76.0748 87.9185 76.0748C89.0381 76.0748 89.9478 76.4463 90.5477 77.1482C91.1504 77.8573 91.3888 78.8465 91.2144 79.9372Z" fill="#179BD7"/>
<path d="M43.8517 57.0986L44.8638 50.6706L42.6095 50.6182H31.8452L39.3259 3.1846C39.3488 3.04139 39.4245 2.90787 39.5348 2.81307C39.6451 2.71826 39.7866 2.66602 39.9336 2.66602H58.0841C64.1099 2.66602 68.2681 3.91992 70.4393 6.39481C71.457 7.55586 72.1054 8.7691 72.419 10.1043C72.7476 11.5053 72.7537 13.1791 72.4323 15.2205L72.4089 15.3696V16.6776L73.4272 17.2543C74.2844 17.709 74.9651 18.2295 75.4876 18.8255C76.3588 19.8182 76.9219 21.0798 77.1598 22.5756C77.4054 24.114 77.3241 25.9445 76.9219 28.0169C76.4574 30.4009 75.7065 32.4772 74.6927 34.1762C73.7597 35.7416 72.5716 37.0398 71.1612 38.0463C69.8143 39.0021 68.214 39.7279 66.4048 40.1925C64.6513 40.6487 62.6528 40.8793 60.4603 40.8793H59.0477C58.0379 40.8793 57.0564 41.243 56.2866 41.8953C55.5146 42.5609 55.0032 43.47 54.8467 44.4648L54.7403 45.0436L52.9523 56.3728L52.8709 56.7889C52.8498 56.9209 52.813 56.9866 52.759 57.0312C52.7105 57.0713 52.6409 57.0986 52.5729 57.0986H43.8517Z" fill="#253B80"/>
<path d="M74.3909 15.5212C74.3368 15.8676 74.275 16.2217 74.2054 16.5855C71.8113 28.8749 63.6226 33.1204 53.1634 33.1204H47.8383C46.5594 33.1204 45.4816 34.0492 45.2822 35.3108L42.5555 52.6025L41.7835 57.5037C41.6537 58.332 42.2926 59.079 43.1282 59.079H52.5735C53.692 59.079 54.6417 58.2663 54.8178 57.1634L54.9108 56.6833L56.6893 45.3981L56.8035 44.7792C56.9773 43.6724 57.9293 42.8597 59.0478 42.8597H60.4604C69.6111 42.8597 76.7749 39.1444 78.8687 28.3931C79.7432 23.9019 79.2904 20.1518 76.976 17.5143C76.2758 16.719 75.4069 16.0592 74.3909 15.5212Z" fill="#179BD7"/>
<path d="M71.8859 14.5232C71.5205 14.4168 71.1428 14.32 70.7557 14.2329C70.3669 14.1478 69.9681 14.0724 69.5581 14.0066C68.1221 13.7744 66.5491 13.6641 64.8636 13.6641H50.6373C50.2869 13.6641 49.9544 13.7434 49.6564 13.8866C49.0002 14.202 48.5128 14.8232 48.3947 15.5836L45.3679 34.7521L45.281 35.3113C45.4804 34.0497 46.5583 33.1208 47.8372 33.1208H53.1623C63.6214 33.1208 71.8107 28.8735 74.2042 16.586C74.2755 16.2222 74.3357 15.8681 74.3897 15.5217C73.7842 15.2005 73.128 14.9257 72.4217 14.6915C72.248 14.6335 72.068 14.5774 71.8859 14.5232Z" fill="#222D65"/>
<path d="M48.3949 15.5834C48.513 14.8229 49.0009 14.2018 49.6565 13.8883C49.9568 13.7451 50.2876 13.6658 50.6375 13.6658H64.8643C66.5498 13.6658 68.1228 13.776 69.5583 14.0083C69.9688 14.0741 70.3676 14.1495 70.7564 14.2346C71.1435 14.3218 71.5206 14.4185 71.8866 14.5249C72.0682 14.5791 72.2481 14.6352 72.4241 14.6913C73.1304 14.9255 73.7866 15.2022 74.3921 15.5215C75.1045 10.9799 74.3865 7.88775 71.9312 5.08772C69.2241 2.00524 64.3379 0.685547 58.0859 0.685547H39.9349C38.6577 0.685547 37.5687 1.61432 37.3709 2.87792L29.8111 50.7991C29.6618 51.7472 30.3932 52.6028 31.349 52.6028H42.5551L45.3686 34.7519L48.3949 15.5834Z" fill="#253B80"/>
</svg>
